<?xml version="1.0" standalone="no"?>
<!DOCTYPE svg PUBLIC "-//W3C//DTD SVG 20010904//EN"
 "http://www.w3.org/TR/2001/REC-SVG-20010904/DTD/svg10.dtd">
<svg version="1.0" xmlns="http://www.w3.org/2000/svg"
 width="1920.000000pt" height="360.000000pt" viewBox="0 0 1920.000000 360.000000"
 preserveAspectRatio="xMidYMid meet">
<metadata>
Created by potrace 1.16, written by Peter Selinger 2001-2019
</metadata>
<g transform="translate(0.000000,360.000000) scale(0.100000,-0.100000)"
fill="#000000" stroke="none">
<path d="M5153 2990 c-50 -20 -53 -41 -53 -430 l0 -360 -362 0 c-342 0 -365
-1 -395 -20 -59 -36 -51 -146 13 -170 15 -6 175 -10 385 -10 l359 0 0 -362 c0
-341 1 -365 19 -395 22 -35 62 -49 112 -38 19 4 38 19 50 38 18 30 19 54 19
395 l0 362 363 0 c340 0 364 1 394 19 56 35 56 127 0 162 -30 18 -54 19 -394
19 l-363 0 0 360 c0 306 -2 366 -15 391 -23 44 -79 60 -132 39z"/>
<path d="M7097 2884 c-15 -8 -32 -26 -37 -40 -6 -15 -10 -313 -10 -745 0 -785
-1 -768 56 -789 16 -6 565 -10 1445 -10 1552 0 1467 -3 1489 56 6 15 10 311
10 745 0 785 1 768 -56 789 -16 6 -565 10 -1447 10 -1251 -1 -1425 -3 -1450
-16z m2797 -94 c57 -21 56 -13 56 -689 0 -370 -4 -630 -10 -645 -22 -59 53
-56 -1389 -56 -816 0 -1329 4 -1345 10 -57 21 -56 13 -56 689 0 369 4 630 10
645 22 58 -55 55 1387 56 818 0 1331 -4 1347 -10z"/>
<path d="M14347 2884 c-15 -8 -32 -26 -37 -40 -6 -15 -10 -313 -10 -745 0
-785 -1 -768 56 -789 16 -6 565 -10 1445 -10 1552 0 1467 -3 1489 56 6 15 10
311 10 745 0 785 1 768 -56 789 -16 6 -565 10 -1447 10 -1251 -1 -1425 -3
-1450 -16z m2797 -94 c57 -21 56 -13 56 -689 0 -370 -4 -630 -10 -645 -22 -59
53 -56 -1389 -56 -816 0 -1329 4 -1345 10 -57 21 -56 13 -56 689 0 369 4 630
10 645 22 58 -55 55 1387 56 818 0 1331 -4 1347 -10z"/>
<path d="M15229 2671 c-24 -25 -29 -38 -29 -79 l0 -50 -29 29 -29 29 -242 0
-242 0 -29 -29 -29 -29 0 -492 0 -492 29 -29 29 -29 239 0 c194 0 242 3 260
15 18 13 24 13 51 -1 26 -12 69 -14 264 -10 279 5 221 5 521 0 l248 -5 29 30
30 29 29 -29 29 -29 242 0 242 0 29 29 29 29 0 242 0 242 -29 29 -29 29 29 29
29 29 0 242 0 242 -29 29 -29 29 -242 0 -242 0 -29 -29 -29 -29 -29 29 -29 29
-492 0 -492 0 -29 -29z m821 -86 c-19 -8 -196 -75 -392 -149 l-358 -134 0 109
c0 64 5 119 12 135 23 51 44 53 423 53 313 0 346 -2 315 -14z m500 -130 l-145
-145 -3 102 c-5 168 14 187 188 188 l105 0 -145 -145z m-1500 30 c48 -25 51
-56 48 -428 l-3 -337 -146 390 -147 390 110 0 c77 0 117 -4 138 -15z m1135
-234 c-25 -49 -55 -52 -428 -49 l-337 3 387 145 388 146 3 -108 c2 -82 -1
-115 -13 -137z m604 6 c-18 -43 -62 -57 -181 -57 l-103 0 145 145 145 145 3
-102 c2 -64 -2 -113 -9 -131z m-1925 -299 l134 -358 -110 0 c-125 0 -160 12
-177 61 -7 21 -11 149 -10 378 0 310 2 342 14 311 8 -19 75 -196 149 -392z
m551 -106 l-150 -147 -3 95 c-6 186 8 200 188 200 l115 0 -150 -148z m535 3
l-145 -145 -3 102 c-5 168 14 187 188 188 l105 0 -145 -145z m600 0 l-145
-145 -3 102 c-5 168 14 187 188 188 l105 0 -145 -145z m-895 -183 c-10 -56
-50 -72 -180 -72 l-110 0 145 145 145 145 3 -92 c2 -51 0 -108 -3 -126z m534
-15 c-18 -43 -62 -57 -181 -57 l-103 0 145 145 145 145 3 -102 c2 -64 -2 -113
-9 -131z m600 0 c-18 -43 -62 -57 -181 -57 l-103 0 145 145 145 145 3 -102 c2
-64 -2 -113 -9 -131z"/>
<path d="M12043 2481 c-35 -22 -49 -62 -38 -112 4 -19 19 -38 38 -50 31 -18
61 -19 857 -19 796 0 826 1 857 19 19 12 34 31 38 50 11 50 -3 90 -38 112 -31
18 -61 19 -857 19 -796 0 -826 -1 -857 -19z"/>
<path d="M10197 2284 c-15 -8 -32 -26 -37 -40 -6 -15 -10 -220 -10 -492 0
-445 -1 -468 -19 -496 -11 -16 -30 -35 -43 -42 -18 -11 -288 -13 -1341 -14
-1440 0 -1365 3 -1387 -56 -6 -14 -10 -80 -10 -147 0 -145 14 -181 75 -193 45
-8 57 2 85 76 39 104 71 144 142 179 107 53 291 53 412 1 88 -37 164 -131 181
-223 l7 -37 1098 0 1098 0 6 35 c16 86 73 165 150 210 96 56 293 70 423 30
102 -31 192 -124 214 -220 l12 -55 109 0 c121 0 162 13 178 56 6 14 10 164 10
340 l0 315 -54 162 c-111 337 -240 549 -370 608 -38 17 -74 19 -471 18 -365 0
-434 -2 -458 -15z"/>
<path d="M17447 2284 c-15 -8 -32 -26 -37 -40 -6 -15 -10 -220 -10 -492 0
-445 -1 -468 -19 -496 -11 -16 -30 -35 -43 -42 -18 -11 -288 -13 -1341 -14
-1440 0 -1365 3 -1387 -56 -6 -14 -10 -80 -10 -147 0 -145 14 -181 75 -193 45
-8 57 2 85 76 39 104 71 144 142 179 107 53 291 53 412 1 88 -37 164 -131 181
-223 l7 -37 1098 0 1098 0 6 35 c16 86 73 165 150 210 96 56 293 70 423 30
102 -31 192 -124 214 -220 l12 -55 109 0 c121 0 162 13 178 56 6 14 10 164 10
340 l0 315 -54 162 c-111 337 -240 549 -370 608 -38 17 -74 19 -471 18 -365 0
-434 -2 -458 -15z"/>
<path d="M547 1884 c-15 -8 -32 -26 -37 -40 -6 -14 -10 -125 -10 -247 0 -204
2 -225 20 -254 11 -18 27 -33 35 -33 23 0 18 -16 -10 -28 -14 -7 -30 -23 -35
-38 -6 -14 -10 -124 -10 -245 0 -240 6 -270 56 -289 15 -6 220 -10 495 -10
512 0 518 1 539 56 6 14 10 124 10 245 0 240 -6 270 -56 289 -14 6 -136 10
-272 10 -226 1 -245 2 -219 16 15 8 32 26 37 40 6 14 10 124 10 245 0 240 -6
270 -56 289 -14 6 -125 10 -247 10 -179 -1 -227 -4 -250 -16z m208 -232 l-150
-147 -3 95 c-6 186 8 200 188 200 l115 0 -150 -148z m240 -180 c-10 -56 -50
-72 -180 -72 l-110 0 145 145 145 145 3 -92 c2 -51 0 -108 -3 -126z m5 -421
l-395 -149 -3 96 c-4 132 2 159 41 182 30 19 52 20 392 19 l360 0 -395 -148z
m495 -179 c-4 -23 -16 -39 -38 -52 -30 -19 -52 -20 -392 -19 l-360 0 395 148
395 149 3 -96 c2 -54 0 -112 -3 -130z"/>
<path d="M12043 1881 c-35 -22 -49 -62 -38 -112 4 -19 19 -38 38 -50 31 -18
61 -19 857 -19 796 0 826 1 857 19 19 12 34 31 38 50 11 50 -3 90 -38 112 -31
18 -61 19 -857 19 -796 0 -826 -1 -857 -19z"/>
<path d="M2583 1830 c-43 -26 -45 -42 -41 -308 l3 -222 -83 0 c-94 0 -137 -16
-152 -56 -6 -14 -10 -124 -10 -245 0 -240 6 -270 56 -289 14 -6 125 -10 247
-10 204 0 225 2 255 20 17 11 32 27 32 35 0 23 16 18 28 -10 7 -14 23 -30 38
-35 14 -6 124 -10 245 -10 240 0 270 6 289 56 6 14 10 124 10 245 0 240 -6
270 -56 289 -14 6 -89 10 -167 10 l-142 0 3 235 c3 256 -2 286 -54 305 -14 6
-125 10 -247 10 -202 0 -225 -2 -254 -20z m212 -228 l-150 -147 -3 95 c-6 186
8 200 188 200 l115 0 -150 -148z m240 -180 c-10 -56 -50 -72 -180 -72 l-110 0
145 145 145 145 3 -92 c2 -51 0 -108 -3 -126z m-480 -370 l-150 -147 -3 95
c-6 186 8 200 188 200 l115 0 -150 -148z m600 0 l-150 -147 -3 95 c-6 186 8
200 188 200 l115 0 -150 -148z m-360 -180 c-10 -56 -50 -72 -180 -72 l-110 0
145 145 145 145 3 -92 c2 -51 0 -108 -3 -126z m600 0 c-10 -56 -50 -72 -180
-72 l-110 0 145 145 145 145 3 -92 c2 -51 0 -108 -3 -126z"/>
<path d="M1697 1784 c-15 -8 -32 -26 -37 -40 -6 -15 -10 -221 -10 -495 0 -512
1 -518 56 -539 14 -6 124 -10 245 -10 240 0 270 6 289 56 6 15 10 220 10 495
0 512 -1 518 -56 539 -14 6 -125 10 -247 10 -179 -1 -227 -4 -250 -16z m397
-94 c54 -20 56 -37 56 -427 l-1 -358 -128 340 c-70 187 -137 366 -149 398
l-22 57 109 0 c61 0 121 -4 135 -10z m-142 -888 c-132 -4 -159 2 -182 41 -19
30 -20 52 -19 392 l0 360 148 -395 149 -395 -96 -3z"/>
<path d="M7763 991 c-168 -43 -258 -248 -183 -417 31 -71 62 -106 121 -139 49
-27 62 -30 149 -30 88 0 99 2 150 31 130 73 184 247 120 390 -50 114 -123 164
-248 170 -42 2 -91 0 -109 -5z"/>
<path d="M10763 991 c-168 -43 -258 -248 -183 -417 31 -71 62 -106 121 -139
49 -27 62 -30 149 -30 88 0 99 2 150 31 130 73 184 247 120 390 -50 114 -123
164 -248 170 -42 2 -91 0 -109 -5z"/>
<path d="M15013 991 c-168 -43 -258 -248 -183 -417 31 -71 62 -106 121 -139
49 -27 62 -30 149 -30 88 0 99 2 150 31 130 73 184 247 120 390 -50 114 -123
164 -248 170 -42 2 -91 0 -109 -5z"/>
<path d="M18013 991 c-168 -43 -258 -248 -183 -417 31 -71 62 -106 121 -139
49 -27 62 -30 149 -30 88 0 99 2 150 31 130 73 184 247 120 390 -50 114 -123
164 -248 170 -42 2 -91 0 -109 -5z"/>
</g>
</svg>
